<svg width="64" height="64" viewBox="0 0 64 64" fill="none" xmlns="http://www.w3.org/2000/svg">
<g id="Group 18176">
<g id="Group">
<path id="Vector" d="M52.4257 32.4828C52.4257 31.0784 52.3012 29.745 52.0879 28.4473H31.999V36.465H43.5012C42.9857 39.0962 41.4746 41.3184 39.2346 42.8295V48.1628H46.0968C50.1146 44.4473 52.4257 38.9717 52.4257 32.4828Z" fill="#4285F4"/>
<path id="Vector_2" d="M32 53.3364C37.76 53.3364 42.5777 51.4164 46.0977 48.1631L39.2355 42.8298C37.3155 44.1098 34.88 44.892 32 44.892C26.4355 44.892 21.7244 41.1409 20.0355 36.0742H12.96V41.5676C16.4622 48.5364 23.6622 53.3364 32 53.3364Z" fill="#34A853"/>
<path id="Vector_3" d="M20.0349 36.075C19.5905 34.795 19.3593 33.4261 19.3593 32.0039C19.3593 30.5817 19.6082 29.2128 20.0349 27.9328V22.4395H12.9593C11.5016 25.3195 10.666 28.555 10.666 32.0039C10.666 35.4528 11.5016 38.6883 12.9593 41.5683L20.0349 36.075Z" fill="#FBBC05"/>
<path id="Vector_4" d="M32 19.1124C35.1466 19.1124 37.9555 20.1969 40.1777 22.3124L46.2577 16.2324C42.5777 12.7835 37.76 10.668 32 10.668C23.6622 10.668 16.4622 15.468 12.96 22.4369L20.0355 27.9302C21.7244 22.8635 26.4355 19.1124 32 19.1124Z" fill="#EA4335"/>
</g>
</g>
</svg>
